<mxfile host="app.diagrams.net" agent="Mozilla/5.0 (Windows NT 10.0; Win64; x64) AppleWebKit/537.36 (KHTML, like Gecko) Chrome/128.0.0.0 Safari/537.36 OPR/114.0.0.0" version="25.0.3">
  <diagram id="C5RBs43oDa-KdzZeNtuy" name="Page-1">
    <mxGraphModel dx="1009" dy="619" grid="1" gridSize="10" guides="1" tooltips="1" connect="1" arrows="1" fold="1" page="1" pageScale="1" pageWidth="827" pageHeight="1169" math="0" shadow="0">
      <root>
        <mxCell id="WIyWlLk6GJQsqaUBKTNV-0" />
        <mxCell id="WIyWlLk6GJQsqaUBKTNV-1" parent="WIyWlLk6GJQsqaUBKTNV-0" />
        <mxCell id="XJSKBv1WSOzIokyZPbyB-2" style="edgeStyle=orthogonalEdgeStyle;rounded=0;orthogonalLoop=1;jettySize=auto;html=1;" edge="1" parent="WIyWlLk6GJQsqaUBKTNV-1" source="XJSKBv1WSOzIokyZPbyB-0" target="XJSKBv1WSOzIokyZPbyB-1">
          <mxGeometry relative="1" as="geometry" />
        </mxCell>
        <mxCell id="XJSKBv1WSOzIokyZPbyB-0" value="start" style="strokeWidth=2;html=1;shape=mxgraph.flowchart.start_1;whiteSpace=wrap;" vertex="1" parent="WIyWlLk6GJQsqaUBKTNV-1">
          <mxGeometry x="310" y="50" width="100" height="60" as="geometry" />
        </mxCell>
        <mxCell id="XJSKBv1WSOzIokyZPbyB-1" value="input a" style="shape=parallelogram;html=1;strokeWidth=2;perimeter=parallelogramPerimeter;whiteSpace=wrap;rounded=1;arcSize=12;size=0.23;" vertex="1" parent="WIyWlLk6GJQsqaUBKTNV-1">
          <mxGeometry x="310" y="160" width="100" height="60" as="geometry" />
        </mxCell>
        <mxCell id="XJSKBv1WSOzIokyZPbyB-11" value="end" style="strokeWidth=2;html=1;shape=mxgraph.flowchart.start_1;whiteSpace=wrap;" vertex="1" parent="WIyWlLk6GJQsqaUBKTNV-1">
          <mxGeometry x="310" y="440" width="100" height="60" as="geometry" />
        </mxCell>
        <mxCell id="XJSKBv1WSOzIokyZPbyB-15" value="xếp loại đạt" style="strokeWidth=2;html=1;shape=mxgraph.flowchart.display;whiteSpace=wrap;" vertex="1" parent="WIyWlLk6GJQsqaUBKTNV-1">
          <mxGeometry x="130" y="370" width="100" height="60" as="geometry" />
        </mxCell>
        <mxCell id="XJSKBv1WSOzIokyZPbyB-16" style="edgeStyle=orthogonalEdgeStyle;rounded=0;orthogonalLoop=1;jettySize=auto;html=1;entryX=0.5;entryY=0;entryDx=0;entryDy=0;entryPerimeter=0;" edge="1" parent="WIyWlLk6GJQsqaUBKTNV-1" source="XJSKBv1WSOzIokyZPbyB-15" target="XJSKBv1WSOzIokyZPbyB-11">
          <mxGeometry relative="1" as="geometry" />
        </mxCell>
        <mxCell id="XJSKBv1WSOzIokyZPbyB-17" value="a &amp;gt; 5" style="strokeWidth=2;html=1;shape=mxgraph.flowchart.decision;whiteSpace=wrap;" vertex="1" parent="WIyWlLk6GJQsqaUBKTNV-1">
          <mxGeometry x="310" y="260" width="100" height="100" as="geometry" />
        </mxCell>
        <mxCell id="XJSKBv1WSOzIokyZPbyB-18" style="edgeStyle=orthogonalEdgeStyle;rounded=0;orthogonalLoop=1;jettySize=auto;html=1;entryX=0.616;entryY=-0.017;entryDx=0;entryDy=0;entryPerimeter=0;" edge="1" parent="WIyWlLk6GJQsqaUBKTNV-1" source="XJSKBv1WSOzIokyZPbyB-17" target="XJSKBv1WSOzIokyZPbyB-15">
          <mxGeometry relative="1" as="geometry" />
        </mxCell>
        <mxCell id="XJSKBv1WSOzIokyZPbyB-21" style="edgeStyle=orthogonalEdgeStyle;rounded=0;orthogonalLoop=1;jettySize=auto;html=1;" edge="1" parent="WIyWlLk6GJQsqaUBKTNV-1" source="XJSKBv1WSOzIokyZPbyB-19" target="XJSKBv1WSOzIokyZPbyB-11">
          <mxGeometry relative="1" as="geometry" />
        </mxCell>
        <mxCell id="XJSKBv1WSOzIokyZPbyB-19" value="không đạt" style="strokeWidth=2;html=1;shape=mxgraph.flowchart.display;whiteSpace=wrap;" vertex="1" parent="WIyWlLk6GJQsqaUBKTNV-1">
          <mxGeometry x="480" y="370" width="100" height="60" as="geometry" />
        </mxCell>
        <mxCell id="XJSKBv1WSOzIokyZPbyB-20" style="edgeStyle=orthogonalEdgeStyle;rounded=0;orthogonalLoop=1;jettySize=auto;html=1;entryX=0.572;entryY=0.003;entryDx=0;entryDy=0;entryPerimeter=0;" edge="1" parent="WIyWlLk6GJQsqaUBKTNV-1" source="XJSKBv1WSOzIokyZPbyB-17" target="XJSKBv1WSOzIokyZPbyB-19">
          <mxGeometry relative="1" as="geometry" />
        </mxCell>
        <mxCell id="XJSKBv1WSOzIokyZPbyB-22" value="true" style="text;html=1;align=center;verticalAlign=middle;resizable=0;points=[];autosize=1;strokeColor=none;fillColor=none;" vertex="1" parent="WIyWlLk6GJQsqaUBKTNV-1">
          <mxGeometry x="240" y="288" width="40" height="30" as="geometry" />
        </mxCell>
        <mxCell id="XJSKBv1WSOzIokyZPbyB-23" value="false" style="text;html=1;align=center;verticalAlign=middle;resizable=0;points=[];autosize=1;strokeColor=none;fillColor=none;" vertex="1" parent="WIyWlLk6GJQsqaUBKTNV-1">
          <mxGeometry x="425" y="288" width="50" height="30" as="geometry" />
        </mxCell>
        <mxCell id="XJSKBv1WSOzIokyZPbyB-24" style="edgeStyle=orthogonalEdgeStyle;rounded=0;orthogonalLoop=1;jettySize=auto;html=1;entryX=0.5;entryY=0;entryDx=0;entryDy=0;entryPerimeter=0;" edge="1" parent="WIyWlLk6GJQsqaUBKTNV-1" source="XJSKBv1WSOzIokyZPbyB-1" target="XJSKBv1WSOzIokyZPbyB-17">
          <mxGeometry relative="1" as="geometry" />
        </mxCell>
      </root>
    </mxGraphModel>
  </diagram>
</mxfile>
